<svg xmlns="http://www.w3.org/2000/svg" viewBox="0 0 64 64">
  <!-- Hull outer -->
  <path d="M4 34 Q4 54 32 58 Q60 54 60 34 L56 26 L8 26 Z" fill="#7d4e1e"/>
  <!-- Hull inner (water line) -->
  <path d="M10 32 Q10 50 32 54 Q54 50 54 32 L51 28 L13 28 Z" fill="#5c3312"/>
  <!-- Deck planks -->
  <line x1="13" y1="28" x2="13" y2="36" stroke="#8b6520" stroke-width="1.5" stroke-linecap="round"/>
  <line x1="22" y1="28" x2="22" y2="38" stroke="#8b6520" stroke-width="1.5" stroke-linecap="round"/>
  <line x1="32" y1="28" x2="32" y2="40" stroke="#8b6520" stroke-width="1.5" stroke-linecap="round"/>
  <line x1="42" y1="28" x2="42" y2="38" stroke="#8b6520" stroke-width="1.5" stroke-linecap="round"/>
  <line x1="51" y1="28" x2="51" y2="36" stroke="#8b6520" stroke-width="1.5" stroke-linecap="round"/>
  <!-- Mast -->
  <rect x="30" y="6" width="4" height="22" rx="1" fill="#8b6520"/>
  <!-- Sail -->
  <path d="M34 6 L54 16 L34 26 Z" fill="#e8d5a8" opacity="0.95"/>
  <!-- Sail detail line -->
  <line x1="34" y1="10" x2="50" y2="18" stroke="#c8b888" stroke-width="1" opacity="0.5"/>
</svg>
