<svg xmlns="http://www.w3.org/2000/svg" viewBox="0 0 64 64">
  <!-- Ground -->
  <rect x="0" y="58" width="64" height="6" fill="#3a3a4a"/>
  <!-- Left building -->
  <rect x="2" y="28" width="16" height="30" fill="#6a6a7a"/>
  <!-- Center tall building -->
  <rect x="22" y="10" width="18" height="48" fill="#585868"/>
  <!-- Right building -->
  <rect x="44" y="20" width="18" height="38" fill="#6a6a7a"/>
  <!-- Left building windows -->
  <rect x="5" y="32" width="5" height="5" fill="#c8c060" opacity="0.9"/>
  <rect x="12" y="32" width="4" height="5" fill="#c8c060" opacity="0.9"/>
  <rect x="5" y="42" width="5" height="5" fill="#e8e080" opacity="0.9"/>
  <rect x="12" y="42" width="4" height="5" fill="#c8c060" opacity="0.9"/>
  <rect x="5" y="52" width="5" height="4" fill="#c8c060" opacity="0.9"/>
  <!-- Center building windows -->
  <rect x="25" y="14" width="6" height="6" fill="#c8c060" opacity="0.9"/>
  <rect x="33" y="14" width="5" height="6" fill="#c8c060" opacity="0.9"/>
  <rect x="25" y="25" width="6" height="6" fill="#e8e080" opacity="0.9"/>
  <rect x="33" y="25" width="5" height="6" fill="#c8c060" opacity="0.9"/>
  <rect x="25" y="36" width="6" height="6" fill="#c8c060" opacity="0.9"/>
  <rect x="33" y="36" width="5" height="6" fill="#e8e080" opacity="0.9"/>
  <rect x="25" y="47" width="6" height="6" fill="#c8c060" opacity="0.9"/>
  <!-- Right building windows -->
  <rect x="47" y="24" width="6" height="5" fill="#c8c060" opacity="0.9"/>
  <rect x="55" y="24" width="5" height="5" fill="#c8c060" opacity="0.9"/>
  <rect x="47" y="34" width="6" height="5" fill="#e8e080" opacity="0.9"/>
  <rect x="55" y="34" width="5" height="5" fill="#c8c060" opacity="0.9"/>
  <rect x="47" y="44" width="6" height="5" fill="#c8c060" opacity="0.9"/>
  <!-- Center building antenna -->
  <rect x="30" y="4" width="2" height="8" fill="#9a9aa8"/>
  <circle cx="31" cy="4" r="2" fill="#c84020"/>
</svg>
